<?xml version="1.0" standalone="no"?>
<!DOCTYPE svg PUBLIC "-//W3C//DTD SVG 20010904//EN"
 "http://www.w3.org/TR/2001/REC-SVG-20010904/DTD/svg10.dtd">
<svg version="1.0" xmlns="http://www.w3.org/2000/svg"
 width="700.000000pt" height="700.000000pt" viewBox="0 0 700.000000 700.000000"
 preserveAspectRatio="xMidYMid meet">
<metadata>
Created by potrace 1.11, written by Peter Selinger 2001-2013
</metadata>
<g transform="translate(0.000000,700.000000) scale(0.100000,-0.100000)"
fill="#000000" stroke="none">
<path d="M2142 5806 c-684 -387 -1244 -707 -1244 -712 0 -5 197 -123 438 -262
l437 -253 793 436 c435 240 799 442 808 448 15 11 16 62 14 529 l-3 517 -1243
-703z"/>
<path d="M3602 5989 l3 -523 806 -443 806 -444 434 251 c239 138 438 255 442
259 6 6 -1795 1033 -2486 1418 -4 2 -6 -231 -5 -518z"/>
<path d="M2750 4879 c-409 -225 -748 -413 -753 -418 -7 -7 1488 -878 1502
-874 32 9 1500 868 1494 874 -5 5 -312 175 -683 379 -371 205 -707 389 -745
410 l-70 39 -745 -410z"/>
<path d="M780 3465 l0 -1446 53 30 c28 16 230 133 447 258 l395 229 0 929 0
929 -420 242 c-231 134 -432 250 -447 259 l-28 16 0 -1446z"/>
<path d="M5760 4651 l-445 -257 0 -929 0 -929 445 -258 445 -257 3 725 c1 399
1 1049 0 1444 l-3 718 -445 -257z"/>
<path d="M1886 4263 c-3 -3 -6 -370 -6 -815 l0 -808 38 -24 c45 -28 1460 -806
1467 -806 3 0 5 359 5 798 l0 797 -692 400 c-381 220 -717 415 -749 432 -31
18 -59 30 -63 26z"/>
<path d="M4347 3837 l-747 -432 0 -797 c0 -439 2 -798 5 -798 7 0 1422 778
1468 806 l37 24 0 810 c0 445 -3 811 -8 814 -4 2 -344 -190 -755 -427z"/>
<path d="M1403 2137 c-339 -197 -449 -265 -440 -273 8 -8 2047 -1163 2420
-1371 4 -2 7 238 7 535 l0 539 -750 412 c-412 227 -758 414 -767 416 -10 2
-221 -114 -470 -258z"/>
<path d="M4358 1983 l-758 -417 0 -538 c0 -297 3 -537 8 -535 370 207 2411
1363 2419 1371 9 8 -100 75 -439 271 -248 143 -456 261 -462 263 -6 1 -352
-185 -768 -415z"/>
</g>
</svg>
